<svg xmlns="http://www.w3.org/2000/svg" viewBox="0 0 335.29 125.81">
  <defs>
    <style>
      .cls-1 {
        fill: #fff;
      }

      .cls-2 {
        fill: #c1ce30;
      }

      .cls-3 {
        fill: #63b461;
      }
    </style>
  </defs>
  <title>Asset 1</title>
  <g id="Layer_2" data-name="Layer 2">
    <g id="Layer_1-2" data-name="Layer 1">
      <path class="cls-1" d="M264.29,19.7c2,5.8,3.5,11.3,5.6,16.6a38.75,38.75,0,0,0,5.9,10,17.73,17.73,0,0,0,13.7,6.9c-1.6-4.6-2.9-8.8-4.5-13-1.2-3.2-2.2-6.5-3.9-9.4C277.29,24.6,272,20.5,264.29,19.7Z"/>
      <path class="cls-2" d="M335.29,0c-3.7,7.8-7.3,15.5-11,23.3-5,10.7-12.8,18-24.7,20.4a33.54,33.54,0,0,1-5.4.4c3.9-8.7,7.5-17.2,11.6-25.5A32.58,32.58,0,0,1,328.69.4,51.32,51.32,0,0,1,335.29,0Z"/>
      <path class="cls-3" d="M265.79,19.7c7.7.8,13,4.8,16.7,11a51.72,51.72,0,0,1,3.9,9.4c1.5,4.2,2.9,8.5,4.5,13-5.7-.1-10.2-2.8-13.7-6.9a37.15,37.15,0,0,1-5.9-10C269.29,31,267.79,25.6,265.79,19.7Z"/>
      <path class="cls-1" d="M323.39,76.2s-15.1,8.4-17.8,9c0,0,6.3-7.8,7.2-13.6s.5-13.6,2.2-16.9.4-5.4-1-6-3.1,2.3-4,3.7-11.2,13.8-18.6,13.4-8.2-3.3-13.8-7.9-10.4-6.4-21.8-5-23.8,9.9-25.4,23.6a33.55,33.55,0,0,1-14.7,10s17-29.8,19-33.1l-16.6.4-1.8,2.8s-3.1-4-10.2-4-26.5,5.6-30.7,26.8c0,0-5.4,6.6-10.5,9.2-4.5,2.3-2.5-3.1-2.3-3.4s8.9-13.6,9.4-14.2a18.51,18.51,0,0,0,3.1-9,8.77,8.77,0,0,0-9.2-9.2c-6.6,0-13,4.5-15.9,7.1l3.7-5.8-17.4.8s-6.6,11.3-6.9,11.7-.7,1.4-1,1.5-4.4,2-8.3-2.4-5.9-12.2-19.3-12.7-29.2,8.6-31.5,22.6c0,0-1.9,11,3.9,14.7a14.7,14.7,0,0,1-11.4,3.4c-3-.4-5.9-3.5-5.9-3.5S49,83,47.79,80.9c0,0,6.5-6.2,9-10.4A64.27,64.27,0,0,0,63,56.2c1-3.2,3.2-11.8,6-19.1a44.47,44.47,0,0,1,5.7-10.9s2.8-4.3,5.4-4c3.1.4,2.9,4.5,2.9,12.7l7.8-1.3a26,26,0,0,0-.1-8,29.8,29.8,0,0,0-1.5-6.1c-2.5-7.3-11.9-4.6-13.5-4.1a36.72,36.72,0,0,0-11.3,5.8,27.87,27.87,0,0,0-8.5,9.4c-6.2,12-9,25-12.7,35.2,0,0-2.5,6.2-3.7,7.2,0,0-8.4-7.3-16.6-7S1.79,71.8.19,83.2s7.5,13.5,10.6,14,14.4,1.4,26-6.9c0,0,10.5,11.4,21.4,10.9s17.6-7.4,19.3-8.5c0,0,3.5,1.8,9.8,1.8s25.7-2.8,30.5-24.4c0,0,3.7,3,7.5,2.8l-11.4,20.3,16.5-.6a108.64,108.64,0,0,1,18.7-25.2c12.6-12.8,12.1-7.5,11.8-6.3a12.38,12.38,0,0,1-1.8,3.3c-2.1,3-5.5,6.8-6.6,8.1-1.6,1.9-7.3,11.3-1.5,18.3,5.3,6.5,16.6,4.1,22.6-3.3.5-.6,1.3-1,1.7-1.6,0,0,2.7,8.4,9.7,8.4s10.1-2,11.9-2.9a159.17,159.17,0,0,1-9.1,14.1c-5.7,7.9-13.1,16.5-22.1,16.5-9.7,0-10.1-7.3-10.1-10.3s1.1-10.5,12.5-9.9l.2-3.6s-10.3-1-17.1.9S141,106.3,141,111.8s1.3,14.4,24.8,14,39.3-20,44.1-30c0,0,1.1-2.4,2.8-3s11.9-4,17.7-9.7c0,0,2.3,9.8,14.4,10.6,9.1.6,17-.9,24.4-8,4.3-4.1,8.2-10,10.2-18.7,0,0,7.6,6,19.7,1.5,0,0,.8,12.1-2.9,17.5-3.5,5-6.2,3.4-6.6,3.2s-2-1.7-.7-5.9a6.62,6.62,0,0,0,3.7-6c0-4.4-3.5-6.2-6.7-6.2s-9.7,1.7-9.7,11,9.2,12.1,13.7,12.1,12.7.4,37.1-14.8l-3.6-3.2M18.89,91c-4.9,0-10.8-1.3-11.1-6.1s4.4-10.7,11.1-10.6,12.7,10.1,12.7,10.1C30.29,87.6,23.79,91,18.89,91Zm80.4-14.2c-5.2,9.2-11.9,15.3-15,13.5S82.79,79.7,88,70.5,99.89,55.2,103,57,104.49,67.6,99.29,76.8Zm107.2-1.9c-4.9,8.2-11.6,13.6-14.2,12.3-2.3-1.1-1.3-9.6,3.3-18,4.8-8.8,10.3-13.5,14.4-12C213.59,58.6,211.39,66.7,206.49,74.9Zm54,1.5c-5.2,9.2-11.9,15.3-15,13.5s-1.5-10.6,3.7-19.8,11.9-15.3,15-13.5S265.69,67.2,260.49,76.4Z"/>
    </g>
  </g>
</svg>
