<svg id="Layer_1" data-name="Layer 1" xmlns="http://www.w3.org/2000/svg" xmlns:xlink="http://www.w3.org/1999/xlink" viewBox="0 0 219.5 75.54">
  <defs>
    <style>
      .cls-1 {
        fill: none;
      }

      .cls-2 {
        clip-path: url(#clip-path);
      }

      .cls-3 {
        fill: #ee3224;
      }

      .cls-4 {
        fill: #c2cd23;
      }

      .cls-5 {
        fill: #65b360;
      }
    </style>
    <clipPath id="clip-path" transform="translate(0 0)">
      <rect class="cls-1" x="0.06" width="219.44" height="75.48"/>
    </clipPath>
  </defs>
  <title>longos</title>
  <g class="cls-2">
    <path class="cls-3" d="M213.2,45.57a.77.77,0,0,0-1.08-.55s-.68.41-1,.6a56.1,56.1,0,0,1-11.62,5.14A15.78,15.78,0,0,0,205,37.88c-.21-2.27-.37-5.53.77-8.06.91-2,.53-3-.54-3-1.39,0-1.93,1-2.88,2.12-6,7.69-10.51,8.87-13.68,8.46a11.74,11.74,0,0,1-7.75-4.19c-1.68-3.06-5.15-5-10.32-5.14-8.16,0-16.24,4.27-19.1,13a12.26,12.26,0,0,0-.7,3.21c-4.74,4.15-7,5.77-9.08,6.47L153.78,29.4l-10.5,0-1.35,2.26c-1.08-1.5-3.5-3.6-8.53-3.73a19.48,19.48,0,0,0-18.09,11,11.52,11.52,0,0,0-1.18,6.9c-5,5.7-7.27,6.33-8.19,6.33-1.34,0-1.66-1.57-.45-3.81.7-1.29,5.3-8.47,7.46-11.83,2.61-4.06-.37-7.94-5-7.94-3.7,0-7.95,2.37-11.22,5l2.46-4.19-10.76,0-4.83,8c-.71.87-1.21,1.06-2.62.75a7.71,7.71,0,0,1-4-3.86c-1.42-3.69-5.08-6-10.84-6.21-8.16,0-16.23,4.27-19.09,13-1.47,4.15-.54,7.93,2.07,10.32-2.72,2.84-6.09,3.16-10.17.94a32.42,32.42,0,0,1-8.5-6.16,39.23,39.23,0,0,0,10.8-12.49C46.25,24.52,54,8,57.8,8c2,0,2.88,2.73,2.24,6.24a1.12,1.12,0,0,0,0,.34c.15.5,1,.71,1.81.47a1.59,1.59,0,0,0,1.29-1.17c1-6-1.72-10.58-7.35-10.58-5.19,0-10.6,3.15-13.68,8.39C35,23.73,29.74,36.28,25.6,41.81a18,18,0,0,0-12.34-5.3C4.86,36.51.08,42.31,0,47.59s4.65,8.72,11.78,8.47a21.1,21.1,0,0,0,11.36-4.34c4,4.57,9.46,6.27,13.91,7a12.85,12.85,0,0,0,8-1.13A19.84,19.84,0,0,0,51.26,53a12.2,12.2,0,0,0,6,1.48c9,.12,17.06-5.54,19.55-12.91a12.42,12.42,0,0,0,.44-2.29,7.14,7.14,0,0,0,4.23,1.94L74.46,53.84H85l4.65-8C93.71,39.69,98.32,35,102,32.64c2.86-1.83,2.67-.23,1.37,1.8-1,1.62-6.61,10.6-7.14,12-1.72,4.7,2.18,8,7.19,8,3.59.58,8.42-1.83,11.86-5.3a9.91,9.91,0,0,0,8.08,5.15,20.32,20.32,0,0,0,5.75-.41c-2.53,4.46-11.58,19.17-20.56,19.17a6.49,6.49,0,0,1-6.42-6.52c.09-3.76,2.86-6.6,6.22-6.5h1.51a1.39,1.39,0,0,0,1.37-1,.84.84,0,0,0-.74-1.3l-2.15,0c-8.47-.16-15.25,2.5-15.33,8.67s6.63,9.1,15.08,9.1C126.21,75.54,140,54,140,54c4.09-.83,7.51-3,11.38-6V48a10.39,10.39,0,0,0,3.28,4.22c1.47,1.19,3.41,2.18,7.09,2.28,8.9.23,19-5.9,20.23-16.37A25.15,25.15,0,0,0,188.32,40a13.44,13.44,0,0,0,7.32-1.08c.46,4.7-.42,8.57-2.45,11.28a3.08,3.08,0,0,1-3.28,1.47c-1.56-.25-2.86-1.21-3-2.22,3.1-.3,4.45-2.25,4.63-3.95a4,4,0,0,0-4.15-4.3c-2.28,0-5.51,1.3-5.51,6,0,3,2.63,8.09,11.57,7.13,6.79-.73,8.85-2,16.91-5.91A21.23,21.23,0,0,0,212.82,47h0a1.21,1.21,0,0,0,.38-1.42M11.71,53.22c-4.58,0-7.32-3.06-7.32-5.89s2.48-6.12,6.94-6.12c4,.16,6.29,3.27,8.9,6.91C19.14,49.3,16.08,53.22,11.71,53.22ZM67.17,41.73c-3.31,5.74-8.41,10.18-11.38,9.92s-2.69-5.12.62-10.86,8.41-10.18,11.39-9.92S70.49,36,67.17,41.73Zm68.36,0c-3.32,5.74-8.41,10.18-11.38,9.92s-2.69-5.12.62-10.86,8.41-10.18,11.39-9.92S138.85,36,135.53,41.73Zm36.3,0c-3.31,5.74-8.41,10.18-11.39,9.92s-2.69-5.12.62-10.86,8.41-10.18,11.38-9.92S175.15,36,171.83,41.73Z" transform="translate(0 0)"/>
    <path class="cls-4" d="M191.93,25.14A14.25,14.25,0,0,0,200,23.53C210.6,18.33,210.32,7.73,215.95.08a14.31,14.31,0,0,0-8.11,1.62c-10.56,5.19-10.27,15.79-15.91,23.44" transform="translate(0 0)"/>
  </g>
  <path class="cls-5" d="M189.93,30.59a10.14,10.14,0,0,1-5.54-1.76c-7-4.43-6.18-11.79-9.63-17.55A10.17,10.17,0,0,1,180.3,13c7,4.44,6.18,11.78,9.63,17.55" transform="translate(0 0)"/>
  <path class="cls-3" d="M219.5,50a2.87,2.87,0,1,1-2.86-2.79A2.8,2.8,0,0,1,219.5,50m-5,0a2.16,2.16,0,0,0,2.17,2.23A2.13,2.13,0,0,0,218.78,50a2.15,2.15,0,1,0-4.3,0Zm1.72,1.46h-.65V48.69a5.56,5.56,0,0,1,1.07-.09,1.74,1.74,0,0,1,1,.2.77.77,0,0,1,.27.61.72.72,0,0,1-.58.65v0a.83.83,0,0,1,.51.68,2.11,2.11,0,0,0,.2.7h-.7a2.36,2.36,0,0,1-.22-.68c-.05-.31-.22-.44-.58-.44h-.31Zm0-1.58h.31c.36,0,.65-.12.65-.41s-.19-.42-.6-.42a1.62,1.62,0,0,0-.36,0Z" transform="translate(0 0)"/>
</svg>
