<svg id="Layer_1" data-name="Layer 1" xmlns="http://www.w3.org/2000/svg" viewBox="0 0 58 75"><defs><style>.cls-1{fill:#d0141e;}</style></defs><title>trash_icon</title><path class="cls-1" d="M371.25,291.77c.48,4.78,1,9.56,1.46,14.35.54,5.43,1.05,10.86,1.59,16.29.49,5,1,10.07,1.49,15.11a6.11,6.11,0,0,0,6.54,6H411a6,6,0,0,0,6-5.26c.09-.61.13-1.23.19-1.85q.66-6.45,1.3-12.92l1.11-11.16c.42-4.2.85-8.4,1.26-12.59q.56-5.59,1.1-11.17c.19-1.84.36-3.68.55-5.59H370.4C370.69,286,371,288.86,371.25,291.77Zm34.44,30.87q.48-5.67,1-11.34t1-11.44c.15-1.79.27-3.59.42-5.38a2.9,2.9,0,0,1,3.88-2.8,2.57,2.57,0,0,1,1.92,3.18c-.51,6.08-1,12-1.51,17.85-.37,4.37-.72,8.74-1.08,13.11-.11,1.27-.2,2.53-.34,3.79-.15,1.45-1.66,2.44-3.42,2.29a2.52,2.52,0,0,1-2.35-2.78C405.31,327,405.51,324.8,405.69,322.64Zm-9.21-31a2.68,2.68,0,0,1,2.88,2.92c0,5.74,0,11.48,0,17.22h0c0,5.74,0,11.48,0,17.22a2.89,2.89,0,1,1-5.77,0q0-17.22,0-34.44A2.71,2.71,0,0,1,396.48,291.62Zm-17.11,1.85a2.43,2.43,0,0,1,2.52-1.84,3.08,3.08,0,0,1,3,2.94c.53,6.42,1,12.84,1.57,19.26q.62,7.35,1.26,14.71a3.13,3.13,0,0,1-2.06,3.24,2.76,2.76,0,0,1-3.25-1.18,7,7,0,0,1-.54-2.51c-.61-7.09-1.17-14.18-1.76-21.27-.31-3.68-.67-7.34-.95-11A7,7,0,0,1,379.37,293.47Zm46.12-19c0-2.08-1.12-3.14-3.23-3.13h-17c-.37-1.95-1.22-2.85-2.79-2.86q-6,0-12,0a2.62,2.62,0,0,0-2.66,2.35c0,.16-.07.31-.11.51H370.53c-1.66,0-2.75.78-3,2.3-.14,1.12,0,3.28,0,4.42h58C425.5,277.19,425.51,275.35,425.49,274.51Z" transform="translate(-367.5 -268.5)"/></svg>